Coordinates
version=1
nRows=16
nColumns=36
inDegrees=yes

Units are S.I. units (second, meters, Newtons, ...)
If the header above contains a line with 'inDegrees', this indicates whether rotational values are in degrees (yes) or radians (no).

endheader
time	pelvis_tilt	pelvis_list	pelvis_rotation	pelvis_tx	pelvis_ty	pelvis_tz	hip_flexion_r	hip_adduction_r	hip_rotation_r	knee_angle_r	knee_angle_r_beta	ankle_angle_r	subtalar_angle_r	mtp_angle_r	hip_flexion_l	hip_adduction_l	hip_rotation_l	knee_angle_l	knee_angle_l_beta	ankle_angle_l	subtalar_angle_l	mtp_angle_l	lumbar_extension	lumbar_bending	lumbar_rotation	arm_flex_r	arm_add_r	arm_rot_r	elbow_flex_r	pro_sup_r	arm_flex_l	arm_add_l	arm_rot_l	elbow_flex_l	pro_sup_l
      2.51200000	      6.17214671	     -7.45879557	      1.90789338	      3.50414547	      0.96096255	      0.23193922	     10.61933730	     12.02015595	     -5.60083145	     46.08047592	      0.80425603	     25.78691195	     -5.71095336	     -1.23121258	     13.79392361	     -5.61584391	      6.51649078	    111.25329429	      1.94173629	     -5.86364424	     -7.48096717	     -0.58580458	    -24.10396725	      8.47438236	      2.60928948	    -14.11222365	    -24.85393617	     -3.79673749	     91.57536676	     90.00021046	    -20.28035855	     -9.68741175	     -3.63108660	     72.99831385	     90.00021046
      2.51600000	      5.96197969	     -6.99649139	      1.92696686	      3.51698950	      0.96051029	      0.23181678	      9.90485394	     11.51771744	     -5.57841167	     46.08003571	      0.80424834	     26.49519215	     -5.31828993	     -1.35955364	     15.33211561	     -4.90876497	      6.57713229	    111.57740771	      1.94739314	     -5.64190436	     -6.83867916	     -0.91479130	    -23.95857483	      7.97829617	      2.66180295	    -12.98078915	    -24.95256083	     -3.58574191	     92.53557659	     90.00021046	    -20.65839732	     -9.74264409	     -3.61545505	     71.81852399	     90.00021046
      2.52000000	      5.82183817	     -6.59664808	      2.02303036	      3.53023465	      0.96047312	      0.23172375	      8.99961935	     11.08304930	     -5.66678330	     45.84579283	      0.80016003	     27.07080282	     -4.96754845	     -1.50941773	     16.73218201	     -4.29314037	      6.74672266	    111.70994197	      1.94970629	     -5.33657412	     -5.94466689	     -1.13074926	    -23.81309406	      7.55873595	      2.73048688	    -12.02272078	    -24.96999123	     -3.53698191	     93.60473889	     90.00021046	    -21.06811804	     -9.86271399	     -3.52968285	     70.71639220	     90.00021046
      2.52400000	      5.61003951	     -6.19023025	      2.04369473	      3.54349411	      0.96066679	      0.23171154	      8.13285670	     10.64689377	     -5.68113813	     45.53168775	      0.79467787	     27.47266393	     -4.62381294	     -2.15427348	     18.18656196	     -3.70473970	      6.72657674	    111.75625029	      1.95051453	     -5.08766141	     -5.42843780	     -2.05835796	    -23.60445113	      7.10404597	      2.83862954	    -11.09206355	    -25.00055927	     -3.46741493	     94.73261294	     90.00021046	    -21.50487686	     -9.96367162	     -3.46400140	     69.69147671	     90.00021046
      2.52800000	      5.41571841	     -5.77771766	      1.96884616	      3.55662225	      0.96119580	      0.23186736	      7.21670227	     10.23396104	     -5.57699913	     45.12464123	      0.78757356	     27.78122475	     -4.31306768	     -2.31173979	     19.58108100	     -3.13301019	      6.59787056	    111.67072453	      1.94902182	     -4.77021119	     -4.91014653	     -2.10456468	    -23.44810938	      6.60124488	      3.03785241	    -10.17600548	    -25.01875929	     -3.43147968	     95.93007655	     90.00021046	    -21.96361465	    -10.07390710	     -3.40643593	     68.80684899	     90.00021046
      2.53200000	      5.17620406	     -5.34861010	      1.82612334	      3.56995753	      0.96195418	      0.23204316	      6.30161808	      9.81403633	     -5.36898526	     44.63990480	      0.77911332	     27.95563488	     -4.04205048	     -2.65122315	     20.94376593	     -2.56411953	      6.36292545	    111.43791680	      1.94495856	     -4.52206158	     -4.63201856	     -2.21134667	    -23.21542704	      6.06095688	      3.32002260	     -9.38164394	    -25.01671060	     -3.48252708	     97.19195368	     90.00021046	    -22.42432771	    -10.16664890	     -3.30675716	     67.93847260	     90.00021046
      2.53600000	      5.00365335	     -5.00304220	      1.79950585	      3.58340441	      0.96304872	      0.23234056	      5.23668499	      9.55217205	     -5.10828857	     43.92991602	      0.76672167	     27.83436892	     -3.97782738	     -4.19853958	     22.22182708	     -2.13781177	      6.20850508	    111.11119245	      1.93925614	     -4.25009319	     -4.34496996	     -2.65221837	    -23.02672045	      5.60685219	      3.55658099	     -8.66090862	    -24.95914335	     -3.56876287	     98.52744266	     90.00021046	    -22.92794332	    -10.34797049	     -3.18012255	     67.21825307	     90.00021046
      2.54000000	      4.79488757	     -4.60106737	      1.74811928	      3.59695436	      0.96428268	      0.23260407	      4.20762415	      9.23085881	     -4.78437038	     43.21200726	      0.75419180	     27.74078269	     -3.93879709	     -4.29015885	     23.50633665	     -1.63202154	      5.96976334	    110.68822792	      1.93187402	     -3.98607479	     -4.27784764	     -2.66211230	    -22.78123643	      5.09119094	      3.76324398	     -7.94468544	    -24.91086821	     -3.58719606	     99.85514643	     90.00021046	    -23.49543333	    -10.51116804	     -3.11444734	     66.59386335	     90.00021046
      2.54400000	      4.68321426	     -4.12961991	      1.58293030	      3.61067906	      0.96595600	      0.23287087	      3.03871171	      8.84800831	     -4.29380822	     42.43223191	      0.74058216	     27.32001848	     -3.96546408	     -6.36238709	     24.53305627	     -1.10745461	      5.55212442	    110.07456418	      1.92116357	     -3.60707317	     -4.40804085	     -2.50642913	    -22.62596512	      4.48031919	      4.12544464	     -7.36272579	    -24.85381844	     -3.79085099	    101.27324133	     90.00021046	    -24.02967168	    -10.69498158	     -2.94610518	     66.02944078	     90.00021046
      2.54800000	      4.52311601	     -3.72772144	      1.56130640	      3.62457789	      0.96765978	      0.23330276	      1.88980938	      8.59026267	     -3.83273466	     41.55413006	      0.72525639	     26.82825174	     -4.11227429	     -7.54104713	     25.62198242	     -0.68313402	      5.27766243	    109.39309404	      1.90926967	     -3.28286597	     -4.46358839	     -1.93246055	    -22.38215486	      3.93769983	      4.34677246	     -6.79963008	    -24.72678127	     -3.94607297	    102.69718917	     90.00021046	    -24.66978291	    -10.92582395	     -2.85503100	     65.59866074	     90.00021046
      2.55200000	      4.38287619	     -3.31862596	      1.49202490	      3.63873461	      0.96960683	      0.23363551	      0.67733447	      8.31350240	     -3.29538476	     40.60541636	      0.70869821	     26.32652809	     -4.22541067	     -7.71739178	     26.59623288	     -0.25269001	      4.92475828	    108.60000552	      1.89542766	     -2.96410262	     -4.67552818	     -1.98260410	    -22.12213218	      3.39844386	      4.63849889	     -6.37620910	    -24.60853346	     -4.13964677	    104.16841010	     90.00021046	    -25.32346065	    -11.14004471	     -2.75356644	     65.20996212	     90.00021046
      2.55600000	      4.26970257	     -2.86202481	      1.31544597	      3.65276539	      0.97180739	      0.23420276	     -0.52667156	      7.99734397	     -2.60343697	     39.66905979	      0.69235570	     25.39758436	     -4.52613598	    -10.05985709	     27.47448033	      0.14166238	      4.40028217	    107.66328223	      1.87907876	     -2.63489701	     -5.04153484	     -2.02463326	    -21.91935474	      2.75595797	      4.98670127	     -5.87329525	    -24.50379818	     -4.28270415	    105.57298559	     90.00021046	    -26.00246665	    -11.35608545	     -2.69333413	     64.96183806	     90.00021046
      2.56000000	      4.08473265	     -2.40638506	      1.12749316	      3.66698218	      0.97404624	      0.23470865	     -1.65284243	      7.66475551	     -1.89432734	     38.72788350	      0.67592908	     24.56631678	     -4.80762625	    -10.14785317	     28.36554226	      0.52275808	      3.85478579	    106.65107332	      1.86141238	     -2.28114916	     -5.47127351	     -2.16231278	    -21.59851216	      2.12238961	      5.35231202	     -5.45891113	    -24.39425745	     -4.44440991	    107.00561141	     90.00021046	    -26.69340200	    -11.52909405	     -2.69160207	     64.67142933	     90.00021046
      2.56400000	      4.01050489	     -1.94998503	      0.96598318	      3.68141498	      0.97665107	      0.23510395	     -2.94951383	      7.30060284	     -1.19339070	     37.65517263	      0.65720674	     23.40146563	     -5.01563658	    -12.78831267	     29.08018190	      0.88190341	      3.25688196	    105.50143930	      1.84134748	     -2.26444662	     -6.11486507	     -4.28644030	    -21.38195285	      1.51263298	      5.72594383	     -5.12400093	    -24.28717471	     -4.66863369	    108.49564131	     90.00021046	    -27.38758583	    -11.75250071	     -2.56712971	     64.45569636	     90.00021046
      2.56800000	      3.88413246	     -1.54655038	      0.79538158	      3.69595720	      0.97928385	      0.23548482	     -4.15939677	      6.96634724	     -0.51491028	     36.60516881	      0.63888072	     22.12094619	     -5.22305354	    -14.54595514	     29.77939639	      1.18660675	      2.74437340	    104.29758611	      1.82033628	     -1.67599830	     -6.54659718	     -3.00476749	    -21.07379982	      0.94975499	      6.09670299	     -4.79435197	    -24.19695708	     -4.83987105	    109.92811665	     90.00021046	    -28.14179206	    -11.90475511	     -2.56905897	     64.35264912	     90.00021046
      2.57200000	      3.77633012	     -1.07590471	      0.69119748	      3.71058710	      0.98209874	      0.23571814	     -5.38076275	      6.52775385	      0.04581196	     35.55179071	      0.62049580	     20.77482594	     -5.37058260	    -16.15241017	     30.39721428	      1.62583094	      2.22612660	    102.95827529	      1.79696090	     -1.55561320	     -7.15240228	     -3.28274946	    -20.78505002	      0.35278867	      6.37254361	     -4.49267050	    -24.08971038	     -5.00456501	    111.37158212	     90.00021046	    -28.89823290	    -12.04633890	     -2.62085584	     64.24039447	     90.00021046
